# xmcd
#
# Track frame offsets:
#	150
#	13305
#	29127
#	41727
#	52492
#	65495
#	84677
#	96082
#	108932
#	122792
#	137557
#	152627
#
# Disc length: 2175 seconds
#
# Revision: 0
# Processed by: cddbd v1.5.2PL0 Copyright (c) Steve Scherf et al.
# Submitted via: EasyCDDAExtractor 11.0.2.1
#
DISCID=ae087d0c
DTITLE=Various Artist - Festival de Choros
DYEAR=1900
DGENRE=Choro
TTITLE0=Simoneti e Orquestra RGE - Tico Tico No Fubá
TTITLE1=Elio do Bandolim - Miosótis
TTITLE2=Oswaldo Sbarro - Pulando o Muro
TTITLE3=Banda da Polícia Militar do Paraná - Chorão
TTITLE4=Pedroca - Flamengo
TTITLE5=Elio do Bandolim - Murmurando
TTITLE6=Antonio Bombarda - Brasileirinho
TTITLE7=Elio do Bandolim - Flor Amorosa
TTITLE8=Simoneti e Orquestra RGE - Delicado
TTITLE9=Nelson e Orquestra Tupã - Um Chorinho Na Urca
TTITLE10=Elio do Bandolim - Chorando Pra Pixinguinha
TTITLE11=Elio do Bandolim - Lambiscando
EXTD=
EXTT0=
EXTT1=
EXTT2=
EXTT3=
EXTT4=
EXTT5=
EXTT6=
EXTT7=
EXTT8=
EXTT9=
EXTT10=
EXTT11=
PLAYORDER=
